<svg xmlns="http://www.w3.org/2000/svg" version="1.1" xmlns:xlink="http://www.w3.org/1999/xlink" xmlns:svgjs="http://svgjs.dev/svgjs" width="1000" height="1000" viewBox="0 0 1000 1000"><rect width="1000" height="1000" fill="#000000"></rect><g transform="matrix(0.7,0,0,0.7,149.25873091352463,94.67846153846153)"><svg viewBox="0 0 213 247" data-background-color="#000000" preserveAspectRatio="xMidYMid meet" height="1159" width="1000" xmlns="http://www.w3.org/2000/svg" xmlns:xlink="http://www.w3.org/1999/xlink"><defs></defs><g id="tight-bounds" transform="matrix(1,0,0,1,0.22555759345607385,-0.09999999999999432)"><svg viewBox="0 0 212.54886627865264 247.2" height="247.2" width="212.54886627865264"><g><svg viewBox="0 0 395.52 460.0003082200386" height="247.2" width="212.54886627865264"><g transform="matrix(1,0,0,1,0,284.2986447770986)"><svg viewBox="0 0 395.52 175.70166344294" height="175.70166344294" width="395.52"><g><svg viewBox="0 0 395.52 175.70166344294" height="175.70166344294" width="395.52"><g><svg viewBox="0 0 395.52 175.70166344294" height="175.70166344294" width="395.52"><g transform="matrix(1,0,0,1,0,0)"><svg width="395.52" viewBox="3.799999952316284 -34.45000076293945 77.53999328613281 34.45000076293945" height="175.70166344294" data-palette-color="#9ebed2"><path d="M24 0L19.45 0 19.45-16.2 8.35-16.2 8.35 0 3.8 0 3.8-34.45 8.35-34.45 8.35-19.95 19.45-19.95 19.45-34.45 24-34.45 24 0ZM31.6-34.45L36.15-34.45 36.15 0 31.6 0 31.6-34.45ZM43.74-34.45L48.3-34.45 48.3-4 59.75-4 59.25 0 43.74 0 43.74-34.45ZM60.79-34.45L81.34-34.45 80.84-30.65 73.19-30.65 73.19 0 68.64 0 68.64-30.65 60.79-30.65 60.79-34.45Z" opacity="1" transform="matrix(1,0,0,1,0,0)" fill="#ffffff" class="undefined-text-0" data-fill-palette-color="primary" id="text-0"></path></svg></g></svg></g></svg></g></svg></g><g transform="matrix(1,0,0,1,76.35015056092843,0)"><svg viewBox="0 0 242.81969887814313 242.81969887814313" height="242.81969887814313" width="242.81969887814313"><g><svg></svg></g><g id="icon-0"><svg viewBox="0 0 242.81969887814313 242.81969887814313" height="242.81969887814313" width="242.81969887814313"><g><path d="M72.846 242.82c-40.232 0-72.846-32.614-72.846-72.846v-97.128c0-40.232 32.614-72.846 72.846-72.846h97.128c40.232 0 72.846 32.614 72.846 72.846v97.128c0 40.232-32.614 72.846-72.846 72.846z" fill="#ffffff" data-fill-palette-color="accent"></path></g><g transform="matrix(1,0,0,1,70.15464119449757,48.56393977562864)"><svg viewBox="0 0 102.51041648914797 145.69181932688585" height="145.69181932688585" width="102.51041648914797"><g><svg xmlns="http://www.w3.org/2000/svg" viewBox="16.155010223388672 2.9999804496765137 66.84300231933594 94.99989318847656" xml:space="preserve" x="0" y="0" height="145.69181932688585" width="102.51041648914797" class="icon-x-0" data-fill-palette-color="quaternary" id="x-0"><path d="M47.295 5.062c0.148-1.033 0.975-1.969 2.05-2.043 1.224-0.17 2.409 0.823 2.504 2.044 1.182 0.015 2.363-0.001 3.545 0.007 0.002 0.532 0.019 1.063-0.02 1.594-0.808 0-1.624-0.069-2.427 0.03 0.022 4.994 0.006 9.989 0.009 14.984l0.415 0.154c-0.003 0.958 0.002 1.914-0.007 2.872 1.825 0.027 3.651 0.001 5.478 0.011 0.741-0.008 1.449 0.408 1.857 1.018 0.552 0.785 0.639 1.834 0.354 2.735-0.311 0.944-1.187 1.709-2.204 1.735 0.018-0.553-0.128-1.186 0.062-1.688 0.719-0.345 0.816-1.411 0.276-1.953-0.159-0.176-0.412-0.161-0.628-0.166-1.867 0.005-3.734-0.001-5.601 0.003-0.002 12.249-0.003 24.498 0.001 36.747 0.305 0.032 0.614 0.091 0.921 0.037 4.297-0.729 8.588-1.5 12.888-2.206 2.026 2.016 4.043 4.042 6.065 6.062 1.271 1.299 2.604 2.544 3.836 3.878 0.783 2.813 1.496 5.649 2.249 8.473 1.349 4.709 2.75 9.404 4.08 14.119-7.551 1.486-15.104 2.96-22.654 4.444-0.558 0.127-1.123-0.039-1.681-0.088l-19.336-2.417c-1.499-0.239-3.022-0.136-4.534-0.204-6.132-0.123-12.265-0.256-18.396-0.371a9.478 9.478 0 0 0-0.242-0.058 8688.386 8688.386 0 0 0 3.087-19.406c0.045-0.176 0.011-0.423 0.21-0.51 4.157-2.254 8.352-4.446 12.496-6.722a463.8 463.8 0 0 0 3.147-7.189c3.7 0.401 7.393 0.877 11.086 1.341 0.075-0.445 0.034-0.897 0.042-1.345V26.909a6.272 6.272 0 0 0-0.028-0.514c-1.963 0.015-3.926-0.017-5.889 0.015-0.663 0.145-0.818 1.052-0.56 1.595 0.087 0.305 0.426 0.387 0.599 0.618 0.021 0.519-0.002 1.04 0.008 1.559-0.724 0.02-1.427-0.362-1.844-0.949-0.848-1.147-0.746-2.932 0.316-3.911a2.183 2.183 0 0 1 1.584-0.604c1.788-0.008 3.576 0.002 5.365-0.004 0.005-0.974-0.001-1.948 0.001-2.922l0.397-0.033c0.085-0.383 0.042-0.777 0.049-1.167V7.818c-0.003-0.394 0.029-0.792-0.049-1.183-0.783 0.027-1.566 0.004-2.35 0.019-0.091-0.517-0.015-1.042-0.055-1.563 1.179-0.056 2.355 0.003 3.528-0.029z m1.252 2.209c-0.345 0.367-0.763 0.677-1.037 1.102-0.033 0.286-0.011 0.576 0.009 0.861 0.708-0.606 1.347-1.292 1.991-1.963a23.781 23.781 0 0 0-0.963 0z m2.196 0c-1.014 1.005-2.019 2.018-3.03 3.026-0.348 0.276-0.191 0.755-0.194 1.135 0.226-0.169 0.427-0.365 0.623-0.567 1.18-1.206 2.404-2.371 3.566-3.595a25.872 25.872 0 0 0-0.965 0.001z m-3.03 5.225c-0.348 0.276-0.191 0.755-0.194 1.135 1.356-1.232 2.597-2.59 3.919-3.861 0.395-0.271 0.216-0.792 0.242-1.192-1.368 1.255-2.636 2.62-3.967 3.918z m0 2.197c-0.348 0.277-0.191 0.757-0.194 1.136 1.356-1.232 2.598-2.59 3.919-3.861 0.395-0.271 0.216-0.794 0.242-1.194-1.367 1.259-2.636 2.622-3.967 3.919z m-0.019 2.18c-0.334 0.287-0.164 0.775-0.175 1.155 1.356-1.233 2.598-2.591 3.919-3.862 0.412-0.292 0.206-0.848 0.239-1.272-1.33 1.323-2.654 2.655-3.983 3.979z m-0.002 2.199c-0.345 0.307-0.14 0.82-0.218 1.222 1.335-1.339 2.671-2.678 4.014-4.012 0.354-0.29 0.151-0.797 0.189-1.19-1.331 1.324-2.654 2.656-3.985 3.98z m0.143 2.061c0.393-0.037 0.899 0.165 1.189-0.189 0.857-0.876 1.742-1.727 2.592-2.607 0.155-0.315 0.039-0.702 0.061-1.046a1265.162 1265.162 0 0 0-3.842 3.842z m2.198 0c0.317 0.008 0.636 0.027 0.954-0.001 0.268-0.184 0.505-0.422 0.689-0.689 0.028-0.317 0.01-0.636 0.001-0.954-0.551 0.544-1.1 1.094-1.644 1.644z m-2.492 5.255c-0.103 1.405-0.014 2.823-0.044 4.234v21.157c0.015 3.569-0.029 7.139 0.022 10.706 0.557 0.039 1.106 0.17 1.665 0.158-0.012-12.081 0.001-24.163-0.005-36.243-0.547-0.009-1.093 0.006-1.638-0.012z m2.491 0.007c-0.064 2.551-0.009 5.108-0.027 7.662 0.011 9.576-0.021 19.153 0.017 28.728 0.556 0.06 1.108 0.161 1.669 0.179-0.014-12.19 0.014-24.381-0.014-36.571-0.549 0.005-1.097 0.006-1.645 0.002z m-15.548 43.07c-0.153 0.257-0.219 0.594-0.482 0.766-2.723 1.631-5.49 3.193-8.195 4.851-0.46 1.198-0.861 2.42-1.298 3.627 0.688-0.891 1.167-1.929 1.771-2.878 0.174-0.342 0.57-0.446 0.873-0.641 2.67-1.499 5.35-2.983 8.013-4.495 0.249-1.311 0.507-2.621 0.708-3.938-0.519 0.871-0.921 1.808-1.39 2.708z m9.091-0.778c1.275 1.96 2.526 3.939 3.842 5.873 0.18-0.218 0.354-0.438 0.525-0.661-1.241-1.543-2.52-3.055-3.767-4.59-0.184-0.223-0.368-0.45-0.6-0.622z m12.77 1.518c0.061 0.04 0.179 0.121 0.237 0.161 2.379 1.24 4.774 2.452 7.141 3.716 0.406 2.112 0.862 4.214 1.278 6.324 0.069 0.301 0.09 0.622 0.245 0.898-0.271-2.551-0.496-5.107-0.799-7.653-1.308-0.573-2.622-1.131-3.932-1.698-1.395-0.569-2.749-1.249-4.17-1.748z m-14.82 9.859c0.286 0.355 0.643 0.646 0.97 0.966 1.822 1.703 3.631 3.422 5.454 5.126 0.249 0.247 0.559 0.453 0.728 0.769 0.609 1.646 1.117 3.33 1.756 4.963-0.313-2.004-0.728-3.994-1.122-5.982-2.273-1.717-4.539-3.439-6.813-5.154-0.32-0.236-0.617-0.51-0.973-0.688z m29.534 0.971c0.284 0.245 0.638 0.382 0.963 0.561 1.077 0.576 2.16 1.142 3.237 1.716 0.782 2.39 1.544 4.784 2.32 7.175l0.139 0.221c-0.659-2.581-1.312-5.165-1.992-7.741-1.556-0.645-3.09-1.346-4.667-1.932z m-40.075 1.151c-0.915 1.781-1.845 3.557-2.753 5.343-0.099 0.173-0.179 0.386-0.392 0.448-1.299 0.619-2.601 1.237-3.901 1.854-0.331 0.159-0.678 0.297-0.969 0.525 1.991-0.649 3.968-1.342 5.957-1.993 0.845-2.31 1.698-4.616 2.494-6.941-0.179 0.233-0.307 0.5-0.436 0.764z" fill="#333333" data-fill-palette-color="quaternary"></path></svg></g></svg></g></svg></g></svg></g><g></g></svg></g></svg><rect width="212.54886627865264" height="247.2" fill="none" stroke="none" visibility="hidden"></rect></g></svg></g></svg>